HIERARCHY
ROOT Hips
{
  OFFSET 13.6774 106.653 -34.4427
  CHANNELS 6 Xposition Yposition Zposition Zrotation Xrotation Yrotation
  JOINT ToSpine
  {
    OFFSET -2.69724 7.43032 -0.144315
    CHANNELS 3 Zrotation Xrotation Yrotation
    JOINT Spine
    {
      OFFSET -0.0310711 10.7595 1.96963
      CHANNELS 3 Zrotation Xrotation Yrotation
      JOINT Spine1
      {
        OFFSET 19.9056 3.91189 0.764692
        CHANNELS 3 Zrotation Xrotation Yrotation
        JOINT Neck
        {
          OFFSET 25.9749 7.03908 -0.130764
          CHANNELS 3 Zrotation Xrotation Yrotation
          JOINT Head
          {
            OFFSET 9.52751 0.295786 -0.907742
            CHANNELS 3 Zrotation Xrotation Yrotation
            End Site
            {
              OFFSET 16.4037 0.713936 2.7358
            }
          }
        }
        JOINT LeftShoulder
        {
          OFFSET 17.7449 4.33886 11.7777
          CHANNELS 3 Zrotation Xrotation Yrotation
          JOINT LeftArm
          {
            OFFSET 0.911315 1.27913 9.80584
            CHANNELS 3 Zrotation Xrotation Yrotation
            JOINT LeftForeArm
            {
              OFFSET 28.6126 1.18197 -3.53199
              CHANNELS 3 Zrotation Xrotation Yrotation
              JOINT LeftHand
              {
                OFFSET 27.5088 0.0218783 0.327423
                CHANNELS 3 Zrotation Xrotation Yrotation
                End Site
                {
                  OFFSET 18.6038 -0.000155887 0.382096
                }
              }
            }
          }
        }
        JOINT RightShoulder
        {
          OFFSET 17.1009 2.89543 -12.2328
          CHANNELS 3 Zrotation Xrotation Yrotation
          JOINT RightArm
          {
            OFFSET 1.4228 0.178766 -10.211
            CHANNELS 3 Zrotation Xrotation Yrotation
            JOINT RightForeArm
            {
              OFFSET 28.733 1.87905 2.64907
              CHANNELS 3 Zrotation Xrotation Yrotation
              JOINT RightHand
              {
                OFFSET 27.4588 0.290562 -0.101845
                CHANNELS 3 Zrotation Xrotation Yrotation
                End Site
                {
                  OFFSET 17.8396 -0.255518 -0.000602873
                }
              }
            }
          }
        }
      }
    }
  }
  JOINT LeftUpLeg
  {
    OFFSET -5.61296 -2.22332 -10.2353
    CHANNELS 3 Zrotation Xrotation Yrotation
    JOINT LeftLeg
    {
      OFFSET 2.56703 -44.7417 -7.93097
      CHANNELS 3 Zrotation Xrotation Yrotation
      JOINT LeftFoot
      {
        OFFSET 3.16933 -46.5642 -3.96578
        CHANNELS 3 Zrotation Xrotation Yrotation
        JOINT LeftToeBase
        {
          OFFSET 0.346054 -6.02161 12.8035
          CHANNELS 3 Zrotation Xrotation Yrotation
          End Site
          {
            OFFSET 0.134235 -1.35082 5.13018
          }
        }
      }
    }
  }
  JOINT RightUpLeg
  {
    OFFSET -5.7928 -1.72406 10.6446
    CHANNELS 3 Zrotation Xrotation Yrotation
    JOINT RightLeg
    {
      OFFSET -2.57161 -44.7178 -7.85259
      CHANNELS 3 Zrotation Xrotation Yrotation
      JOINT RightFoot
      {
        OFFSET -3.10148 -46.5936 -4.03391
        CHANNELS 3 Zrotation Xrotation Yrotation
        JOINT RightToeBase
        {
          OFFSET -0.0828122 -6.13587 12.8035
          CHANNELS 3 Zrotation Xrotation Yrotation
          End Site
          {
            OFFSET -0.131328 -1.35082 5.13018
          }
        }
      }
    }
  }
}
MOTION
Frames: 16
Frame Time: 0.03333333333333333
0.0000 93.1000 0.0000 49.1851 -41.0552 -30.1713 -70.8758 0.0222 87.9364 116.8836 73.5203 -31.9973 -7.2113 24.7983 4.2137 -164.8187 24.4589 177.2051 -155.5026 63.9226 -175.2494 -0.0405 -11.5399 -30.8941 -77.3120 53.2432 -63.6932 13.5749 4.7281 -67.2958 -0.2352 -0.0452 -0.3541 -2.2610 5.9259 41.1088 -68.5096 -30.0951 88.1341 17.6689 -5.8452 73.5812 0.0972 -0.1770 -0.3124 -27.3195 -4.8575 89.2563 -6.1266 56.0879 -7.1937 3.9990 -21.1357 -2.2387 6.2014 -17.1175 26.0100 -59.1654 -2.5218 92.2758 3.7847 54.9145 1.9685 -4.1582 3.2894 0.1098 1.3765 -10.1963 -5.6533 
0.0000 93.1000 0.0000 47.4018 -43.2360 -31.4620 -70.8710 0.0873 87.9331 120.7630 73.9715 -34.4136 -8.9439 26.0406 3.7534 -164.9111 23.9869 176.4389 -157.1528 63.2152 -175.2738 -0.2726 -10.9625 -30.0584 -79.0068 55.0007 -57.9696 11.3602 5.6948 -62.3518 -0.0972 0.2734 -0.5982 -2.3055 6.3884 41.1808 -68.1961 -29.3345 91.7764 20.4374 -5.7919 75.9495 -0.0722 0.1946 -0.4108 -22.8825 -1.7474 89.7951 -4.9245 55.0681 -7.4381 3.7853 -18.0828 -2.3373 6.8871 -17.9159 23.7062 -64.0412 -0.8638 92.8358 1.8613 43.9938 0.9740 -3.2050 3.2382 0.2486 2.0772 -16.8899 0.3480 
0.0000 93.1000 0.0000 45.0816 -45.1358 -33.5952 -70.8670 0.2115 87.9073 124.8069 74.5759 -36.2717 -9.6267 27.4716 2.8205 -166.2861 24.0296 176.6293 -158.0182 63.2409 -174.1658 -0.7955 -10.7377 -29.9353 -79.8073 55.9901 -55.7395 11.0055 7.7418 -56.0706 0.1798 0.8977 -0.7353 -2.3278 6.8163 40.6454 -68.7727 -28.6879 95.8406 23.4695 -5.1038 78.6744 -0.6010 0.8443 -0.8517 -17.8910 1.1007 89.9258 -4.7850 54.5439 -4.2788 2.4965 -18.3533 -2.6009 5.7041 -13.8654 16.8308 -65.7490 -0.0147 92.6631 0.7029 37.1340 0.5195 -5.6188 3.4675 0.9221 3.0174 -27.5618 3.8612 
0.0000 93.1000 0.0000 42.9790 -45.6586 -36.3540 -70.8663 0.0797 87.9516 123.1028 74.7222 -35.6759 -8.5555 27.1420 2.3932 -168.0733 23.0978 177.5680 -159.5631 62.7863 -173.1881 -0.2436 -11.6260 -30.5167 -77.9209 57.1627 -55.6159 10.9383 9.2977 -49.3963 0.0206 0.2485 -0.3594 -2.2402 7.1439 39.8449 -69.9281 -29.1047 99.0802 24.9033 -4.7018 80.0123 -0.1893 0.1521 -0.4394 -14.3187 2.9489 90.7034 -5.1043 52.4397 -3.6901 3.5121 -18.1730 -2.2011 6.0723 -15.6375 15.2578 -64.7122 -1.0586 88.3500 -1.3635 33.1731 4.9201 -3.5286 -3.1597 0.6736 3.6402 -30.8992 3.4185 
0.0000 93.1000 0.0000 44.0732 -46.4142 -36.4399 -70.8606 0.0285 87.9305 124.9290 73.9560 -38.3782 -8.0653 25.9744 2.9123 -168.3142 22.6775 177.9043 -157.8421 62.1259 -171.9368 0.0075 -11.9982 -31.3116 -71.3861 57.4576 -62.7584 8.3376 9.1777 -42.0123 0.0034 0.0202 -0.1915 -2.2775 7.4995 40.4520 -70.6339 -28.2735 102.0885 22.3911 -3.8891 81.0077 0.1703 -0.0912 -0.1463 -12.9714 4.8177 92.2579 -4.3807 50.9018 -5.1489 3.4761 -17.3854 -2.0539 7.0399 -17.0854 15.6882 -62.8888 -2.2490 85.7506 -0.7719 34.3869 9.2444 -4.8715 -10.3678 0.9112 2.8460 -28.3656 -5.1103 
0.0000 93.1000 0.0000 48.1309 -46.4304 -35.3202 -70.8501 -0.0143 87.9142 127.2681 72.6180 -42.9059 -8.1160 25.4569 3.4697 -167.0272 22.1248 177.7907 -155.8312 62.2747 -174.5482 0.1287 -12.9182 -32.8770 -63.6609 57.4288 -70.8288 7.4620 11.3037 -34.3072 -0.3760 -0.1645 0.0473 -2.3625 7.3950 42.0964 -72.6827 -27.3239 102.4711 21.6883 -3.6614 80.7903 0.4924 -0.2815 0.2898 -14.6820 5.2286 93.7384 -4.0489 46.3798 -7.0337 2.2487 -15.8811 -1.6176 6.9134 -17.4348 17.1673 -62.9899 -3.4938 82.3278 -0.8217 35.2469 15.0156 -5.9117 -17.1561 1.2005 1.8652 -24.3445 -10.7403 
0.0000 93.1000 0.0000 49.4586 -47.2657 -33.1849 -70.8490 -0.0024 87.8928 128.7374 71.5042 -43.1881 -7.9294 24.7733 2.9566 -164.0505 22.2260 176.8108 -154.3127 62.2441 -172.7852 0.0555 -12.9300 -33.1905 -64.1965 55.8691 -72.6429 8.0937 15.9916 -29.3239 -0.1907 -0.1068 -0.0912 -2.4487 7.1352 43.0143 -73.8768 -26.0837 100.6272 20.6506 -4.7360 78.9871 0.2454 -0.2129 0.3056 -15.7460 6.6224 94.5268 -3.9432 43.2285 -8.0504 0.0585 -14.5681 -1.3202 7.1164 -17.7244 17.8588 -60.8834 -1.1901 84.3196 -0.0373 35.4646 8.8300 -5.8038 -23.7079 1.5387 2.1076 -16.1517 -13.9635 
0.0000 93.1000 0.0000 49.2289 -47.2600 -33.3411 -70.8568 -0.0077 87.8912 124.8453 71.2540 -40.5863 -7.3189 24.1487 3.7378 -163.1574 22.2556 177.4700 -153.8592 61.9823 -174.8380 0.0811 -13.0308 -33.1224 -69.8361 53.9542 -67.6101 7.0695 17.6369 -28.2257 -0.2386 -0.1605 -0.0805 -2.4603 6.6618 43.1999 -73.8477 -25.2217 97.9163 19.5330 -5.1054 76.7579 0.4465 -0.2211 0.4484 -16.9589 7.2293 95.5478 -3.6152 42.9445 -7.1864 -1.3397 -12.2118 -0.8108 7.1730 -17.0437 16.7267 -58.2657 1.2510 85.5197 -0.2442 35.6265 3.4223 -6.0168 -25.8740 1.6121 1.8881 -10.7833 -15.5067 
0.0000 93.1000 0.0000 52.4126 -46.3500 -30.8874 -70.8734 0.0411 87.8874 124.0953 71.1769 -39.4663 -6.8972 23.3876 4.0408 -162.0096 22.0745 175.8215 -152.4285 61.2694 -175.4596 -0.1004 -12.8337 -32.3163 -71.8129 53.6131 -65.6861 7.0858 14.0957 -29.1670 -0.0488 0.1460 0.0331 -2.7101 6.2878 45.0275 -73.5067 -24.0416 95.0246 18.3734 -6.2795 73.8367 0.1922 0.0517 -0.0105 -18.7681 7.0685 95.4019 -3.7086 44.7585 -7.7103 -0.9037 -9.8964 -0.8783 5.9011 -15.8337 17.1517 -56.7675 1.6012 83.1787 0.0332 34.9574 4.0741 -7.2520 -24.9377 1.7168 1.9475 -9.6976 -16.2232 
0.0000 93.1000 0.0000 53.5126 -46.1815 -28.6256 -70.8856 0.0213 87.8983 123.0566 71.4814 -36.3501 -5.8725 22.9017 4.0226 -159.8760 22.8295 175.2691 -151.5322 62.1143 -175.3296 0.0467 -12.7255 -31.9972 -73.8896 53.1434 -64.9344 7.4046 12.0328 -31.2306 -0.3036 0.0163 0.0457 -2.7911 6.1099 46.0312 -72.8338 -24.3022 90.9779 17.7931 -6.9505 70.8460 0.1093 -0.0816 -0.1693 -21.8400 5.9983 94.5014 -3.9397 48.0352 -6.7697 -1.0110 -10.0691 -0.7435 6.5027 -15.7804 15.8152 -55.8376 2.1045 80.9186 1.1079 34.0033 6.1384 -6.8887 -22.8792 1.4458 2.1926 -8.7082 -15.2559 
0.0000 93.1000 0.0000 53.3067 -47.0438 -28.6760 -70.8969 0.0313 87.8961 119.0699 71.9870 -32.3095 -5.0409 23.0852 4.2185 -158.1518 23.0935 173.3760 -148.5685 62.2931 -178.6271 0.0307 -12.7570 -32.1004 -74.1117 52.3933 -65.9259 7.1340 11.2880 -32.4735 -0.1728 0.0371 -0.0172 -2.7971 6.0693 46.3922 -71.9776 -24.1874 88.2821 17.5866 -8.0778 66.9192 0.1592 -0.0009 0.0176 -24.8818 6.8100 95.0446 -3.9516 52.2717 -6.3903 -1.5476 -9.5783 -0.7218 6.4657 -16.0400 15.1703 -53.7714 2.1423 80.7886 0.6690 34.0852 6.0734 -5.5982 -20.7042 1.0946 1.9309 -7.7433 -15.7873 
0.0000 93.1000 0.0000 54.7633 -47.2525 -28.8748 -70.9025 0.1001 87.8814 120.9963 71.9944 -35.6927 -6.5822 23.1309 5.7303 -156.9688 22.9534 173.8598 -149.9641 62.3401 -176.6716 -0.3116 -12.7103 -31.0333 -73.9206 51.3325 -66.8596 8.1991 12.8456 -35.3995 -0.0814 0.3632 -0.3676 -2.7236 5.8881 46.1797 -71.7640 -25.0801 86.1530 16.4364 -9.1186 63.0455 -0.0762 0.4100 -0.2263 -29.7264 5.9042 96.6673 -4.9788 55.2286 -4.5993 -1.9740 -8.0632 -0.8413 7.0726 -17.1576 15.1386 -52.9358 2.0064 80.7995 0.3886 33.9942 5.6879 -5.7708 -19.6504 1.1891 1.9610 -10.7411 -17.7861 
0.0000 93.1000 0.0000 55.8141 -47.2480 -27.4656 -70.9228 0.0754 87.9066 117.4236 72.0453 -31.3906 -5.4391 23.0204 5.0937 -156.9095 23.0032 173.2510 -150.5185 62.5168 -177.1810 -0.2163 -13.0153 -31.2815 -73.6624 49.2371 -68.0061 9.1410 11.3933 -39.2699 -0.0160 0.2462 -0.4657 -2.6052 5.9065 46.4120 -71.5409 -25.9066 83.1207 17.4580 -11.9123 59.7410 0.2482 0.2640 -0.2123 -34.0084 4.7185 96.8160 -5.8785 58.1126 -5.0801 -1.8054 -6.9911 -0.7890 6.6005 -17.0519 17.0237 -52.9328 1.1939 79.8588 0.4423 32.1443 7.3893 -5.8459 -18.9743 1.1547 1.8436 -15.6320 -18.7975 
0.0000 93.1000 0.0000 56.8685 -47.2597 -26.6884 -70.9317 0.0317 87.9131 113.7559 71.9383 -27.2380 -4.7413 22.7661 4.2119 -156.8758 22.7539 173.1744 -150.7054 62.3716 -178.0219 0.0679 -13.0978 -31.0517 -73.8069 47.1299 -67.7989 9.3001 11.2961 -42.3481 -0.0509 0.0452 -0.0122 -2.4030 5.9756 45.3617 -70.8022 -27.2946 81.2007 16.7400 -11.8912 56.9111 0.2097 0.0011 0.0408 -38.7678 4.7952 97.5947 -5.7018 60.1189 -4.3500 -2.9464 -9.0806 -0.5877 4.1925 -11.9512 16.9643 -51.9211 1.1813 78.8743 1.8954 31.6822 8.0138 -5.7334 -18.9371 1.1730 1.7011 -20.9015 -19.8704 
0.0000 93.1000 0.0000 56.3696 -47.2008 -26.5817 -70.9402 0.0476 87.9066 110.1492 71.8578 -23.2569 -3.1635 22.1001 4.0513 -158.8145 23.2285 172.1021 -150.9945 62.3536 -178.1594 -0.1174 -13.3241 -30.9984 -74.7979 44.2000 -68.8601 11.0553 10.1873 -46.3360 -0.1919 0.1170 -0.1115 -2.3516 6.0704 45.2703 -71.0831 -28.1213 79.0262 15.9876 -12.7562 54.0839 0.1038 0.0604 -0.1733 -42.9048 4.1657 97.5634 -6.8602 62.0363 -3.4840 -3.1637 -9.7933 -0.6993 2.4677 -10.3799 16.8993 -51.1161 1.9912 78.7160 2.0358 31.5103 8.2852 -6.9280 -18.6863 1.4818 1.2104 -24.0615 -22.3092 
0.0000 93.1000 0.0000 57.4350 -47.2295 -25.1409 -70.9320 0.1001 87.8832 109.0213 70.9786 -21.2301 -2.9859 21.0286 4.0169 -157.7273 23.0567 171.9200 -150.1032 61.9325 -179.3464 -0.3645 -13.2386 -31.1391 -76.7152 42.0966 -69.3180 11.2523 9.9586 -49.1410 -0.2717 0.3910 -0.1828 -2.3559 6.0919 46.0211 -70.7475 -27.1105 77.8708 16.5210 -13.6175 50.6822 -0.2296 0.3678 -0.3422 -47.9124 3.8832 97.6051 -7.2161 60.9858 -5.4787 -4.4789 -8.6359 -0.7185 4.2873 -13.8060 16.0901 -48.7730 2.0653 77.6406 2.8971 32.0926 7.5592 -8.3230 -17.9909 1.8157 0.9187 -25.7972 -19.0093 
